# Blender v2.76 (sub 0) OBJ File: ''
# www.blender.org
mtllib Bond3Small.mtl
o Cylinder
v 0.000000 -0.500000 -0.500000
v 0.000000 0.500000 -0.500000
v 0.433013 -0.500000 0.250000
v 0.433013 0.500000 0.250000
v -0.433013 -0.500000 0.250000
v -0.433013 0.500000 0.250000
vn 0.866000 0.000000 -0.500000
vn -0.866000 0.000000 -0.500000
vn -0.000000 0.000000 1.000000
vn 0.000000 1.000000 -0.000000
vn 0.000000 -1.000000 0.000000
usemtl None
s off
f 1//1 2//1 4//1 3//1
f 5//2 6//2 2//2 1//2
f 3//3 4//3 6//3 5//3
f 4//4 2//4 6//4
f 1//5 3//5 5//5
